<svg width="41" height="43" viewBox="0 0 41 43" fill="none" xmlns="http://www.w3.org/2000/svg">
<mask id="path-1-inside-1" fill="white">
<path d="M33.7597 35.5324C31.2932 37.6957 28.2824 39.1438 25.0526 39.7201C21.8229 40.2964 18.497 39.9791 15.4345 38.8024C12.372 37.6256 9.6894 35.6343 7.67654 33.0435C5.66368 30.4528 4.39717 27.3612 4.01388 24.1029C3.6306 20.8446 4.14512 17.5435 5.50184 14.5564C6.85855 11.5693 9.00587 9.00976 11.7117 7.15449C14.4175 5.29922 17.5789 4.21875 20.8543 4.02986C24.1296 3.84097 27.3943 4.55085 30.2955 6.08276L28.5802 9.33116C26.2711 8.11188 23.6727 7.54688 21.0658 7.69722C18.4589 7.84756 15.9426 8.70753 13.789 10.1842C11.6354 11.6608 9.92631 13.698 8.84647 16.0755C7.76663 18.453 7.35712 21.0804 7.66218 23.6737C7.96725 26.2671 8.97529 28.7278 10.5774 30.7898C12.1794 32.8518 14.3146 34.4367 16.7521 35.3733C19.1896 36.3099 21.8367 36.5625 24.4073 36.1038C26.978 35.6451 29.3743 34.4925 31.3375 32.7707L33.7597 35.5324Z"/>
</mask>
<path d="M33.7597 35.5324C31.2932 37.6957 28.2824 39.1438 25.0526 39.7201C21.8229 40.2964 18.497 39.9791 15.4345 38.8024C12.372 37.6256 9.6894 35.6343 7.67654 33.0435C5.66368 30.4528 4.39717 27.3612 4.01388 24.1029C3.6306 20.8446 4.14512 17.5435 5.50184 14.5564C6.85855 11.5693 9.00587 9.00976 11.7117 7.15449C14.4175 5.29922 17.5789 4.21875 20.8543 4.02986C24.1296 3.84097 27.3943 4.55085 30.2955 6.08276L28.5802 9.33116C26.2711 8.11188 23.6727 7.54688 21.0658 7.69722C18.4589 7.84756 15.9426 8.70753 13.789 10.1842C11.6354 11.6608 9.92631 13.698 8.84647 16.0755C7.76663 18.453 7.35712 21.0804 7.66218 23.6737C7.96725 26.2671 8.97529 28.7278 10.5774 30.7898C12.1794 32.8518 14.3146 34.4367 16.7521 35.3733C19.1896 36.3099 21.8367 36.5625 24.4073 36.1038C26.978 35.6451 29.3743 34.4925 31.3375 32.7707L33.7597 35.5324Z" stroke="#FF6B00" stroke-width="6" mask="url(#path-1-inside-1)"/>
</svg>
