<svg width="70" height="54" viewBox="0 0 70 54" fill="none" xmlns="http://www.w3.org/2000/svg">
<path d="M57.8906 26C57.8906 26.9493 57.1211 27.7188 56.1719 27.7188H54.4531C54.3976 27.7188 54.3428 27.7156 54.2886 27.7105C54.1987 28.6521 53.364 29.3441 52.4215 29.2585C51.4762 29.1721 50.7799 28.3357 50.8664 27.3904C50.9084 26.9313 50.9297 26.4635 50.9297 26C50.9297 17.7075 44.1832 10.961 35.8906 10.961C27.5981 10.961 20.8516 17.7075 20.8516 26C20.8516 34.2926 27.5981 41.0391 35.8906 41.0391C41.1565 41.0391 45.9495 38.3574 48.7116 33.8654C48.9505 33.4771 49.3337 33.1995 49.7771 33.0938C50.2206 32.9882 50.6878 33.0627 51.076 33.3016L54.0753 35.146C54.8839 35.6433 55.1363 36.7019 54.6391 37.5104C54.1419 38.3192 53.083 38.5712 52.2747 38.0742L50.671 37.088C49.5213 38.6172 48.1377 39.9634 46.579 41.0714C46.6107 41.1159 46.641 41.1619 46.6688 41.2102L47.5291 42.6982C48.0041 43.52 47.7231 44.5713 46.9013 45.0464C46.6305 45.203 46.3345 45.2774 46.0427 45.2774C45.449 45.2774 44.8716 44.9695 44.5531 44.4185L43.6929 42.9305C43.6654 42.883 43.6411 42.8345 43.6186 42.7856C41.7233 43.6577 39.6855 44.2033 37.6009 44.3968C37.6061 44.4514 37.6092 44.5065 37.6092 44.5625V46.2812C37.6092 47.2305 36.8397 48 35.8905 48C34.9412 48 34.1717 47.2305 34.1717 46.2812V44.5625C34.1717 44.5069 34.1749 44.4521 34.18 44.3978C31.9066 44.1905 29.7199 43.5708 27.7074 42.5749C27.6843 42.6215 27.6597 42.6676 27.6319 42.7128L26.7317 44.1769C26.4072 44.7047 25.8432 44.9956 25.2659 44.9956C24.9588 44.9956 24.6481 44.9134 24.3673 44.7407C23.5587 44.2435 23.3062 43.1849 23.8033 42.3763L24.7036 40.9122C24.7324 40.8654 24.7635 40.8208 24.7959 40.7777C24.106 40.2575 23.4472 39.6866 22.8255 39.0648C22.0812 38.3205 21.4089 37.5234 20.8107 36.6828C20.7671 36.7137 20.7221 36.7434 20.6749 36.7706L19.1864 37.6301C18.9157 37.7864 18.6202 37.8607 18.3286 37.8607C17.7346 37.8607 17.1569 37.5525 16.8385 37.0012C16.3639 36.1791 16.6455 35.1279 17.4675 34.6533L18.956 33.7938C19.0018 33.7673 19.0486 33.7441 19.0957 33.7223C18.2282 31.8384 17.6843 29.8116 17.4926 27.7105C17.4386 27.7156 17.3837 27.7188 17.3281 27.7188H15.6094C14.6601 27.7188 13.8906 26.9493 13.8906 26C13.8906 25.0508 14.6601 24.2813 15.6094 24.2813H17.3281C17.3837 24.2813 17.4386 24.2845 17.4928 24.2896C17.6984 22.0351 18.3097 19.8661 19.291 17.8675C19.2444 17.8445 19.198 17.8201 19.1528 17.7924L17.6861 16.8966C16.8759 16.4018 16.6203 15.344 17.115 14.5339C17.6097 13.7237 18.6675 13.4681 19.4776 13.9628L20.9444 14.8587C20.9912 14.8873 21.0357 14.9181 21.0787 14.9503C21.6079 14.2441 22.1905 13.5704 22.8256 12.9351C23.57 12.1907 24.3671 11.5184 25.2078 10.9201C25.1769 10.8765 25.1471 10.8317 25.1198 10.7844L24.2604 9.29599C23.7857 8.474 24.0673 7.42281 24.8893 6.94809C25.7114 6.47346 26.7626 6.75499 27.2372 7.57707L28.0967 9.06551C28.1232 9.11131 28.1465 9.15806 28.1683 9.20524C30.0522 8.33779 32.079 7.79372 34.1802 7.60216C34.1751 7.54794 34.1719 7.49311 34.1719 7.43751V5.71875C34.1719 4.76949 34.9414 4 35.8906 4C36.8399 4 37.6094 4.76949 37.6094 5.71875V7.43751C37.6094 7.49311 37.6062 7.54794 37.601 7.60216C39.8623 7.80841 42.0376 8.4227 44.0411 9.40917C44.0641 9.36251 44.0886 9.31628 44.1163 9.27107L45.0137 7.80515C45.5094 6.99562 46.5675 6.74107 47.3769 7.23667C48.1866 7.73227 48.441 8.79034 47.9454 9.59996L47.0481 11.0659C47.0194 11.1127 46.9882 11.157 46.9559 11.2001C47.6564 11.7261 48.325 12.3047 48.9555 12.9352C49.7001 13.6798 50.3726 14.4772 50.971 15.3182C51.0147 15.2872 51.0596 15.2576 51.1068 15.2303L52.5952 14.371C53.4172 13.8963 54.4685 14.1779 54.9431 15C55.4177 15.8221 55.136 16.8732 54.314 17.3478L52.8256 18.2072C52.7797 18.2337 52.7329 18.257 52.6858 18.2787C53.553 20.1623 54.0968 22.1888 54.2885 24.2895C54.3427 24.2844 54.3975 24.2812 54.4531 24.2812H56.1719C57.1211 24.2813 57.8906 25.0508 57.8906 26ZM26.5234 19.5547C25.5742 19.5547 24.8047 20.3242 24.8047 21.2735V28.836C24.8047 31.4422 26.925 33.5626 29.5312 33.5626C32.1375 33.5626 34.2578 31.4422 34.2578 28.836V21.2735C34.2578 20.3242 33.4883 19.5547 32.5391 19.5547C31.5898 19.5547 30.8203 20.3242 30.8203 21.2735V28.836C30.8203 29.5468 30.242 30.1251 29.5312 30.1251C28.8205 30.1251 28.2422 29.5468 28.2422 28.836V21.2735C28.2422 20.3242 27.4727 19.5547 26.5234 19.5547ZM38.4688 19.5547C37.5195 19.5547 36.75 20.3242 36.75 21.2735V26.1719C36.75 27.4465 37.4059 28.967 38.755 30.8204C39.6482 32.0472 40.5355 32.9868 40.5728 33.0261C40.8948 33.3658 41.3414 33.5596 41.8094 33.5625H41.8203C42.2844 33.5625 42.729 33.3747 43.0527 33.0418C43.091 33.0024 44.0005 32.0635 44.9163 30.837C46.3026 28.9803 46.9766 27.4543 46.9766 26.1719V21.2735C46.9766 20.3242 46.2071 19.5547 45.2578 19.5547C44.3085 19.5547 43.5391 20.3242 43.5391 21.2735V26.1719C43.5391 26.2493 43.5011 26.9794 42.183 28.7522C42.0667 28.9084 41.9501 29.0599 41.8356 29.2045C40.9263 28.0139 40.1875 26.7648 40.1875 26.1719V21.2735C40.1875 20.3242 39.418 19.5547 38.4688 19.5547Z" fill="#FF6B00"/>
<line x1="1.28317" y1="53.2056" x2="69.2832" y2="1.20564" stroke="#FF6B00" stroke-width="2" stroke-linejoin="round"/>
</svg>
