<svg width="70" height="54" viewBox="0 0 70 54" fill="none" xmlns="http://www.w3.org/2000/svg">
<path d="M20.1012 28.6316C18.6538 28.6316 17.4696 29.8158 17.4696 31.2632C17.4696 32.7105 18.6538 33.8947 20.1012 33.8947C21.5485 33.8947 22.7327 32.7105 22.7327 31.2632C22.7327 29.8158 21.5485 28.6316 20.1012 28.6316ZM20.1012 39.1579C18.6538 39.1579 17.4696 40.3421 17.4696 41.7895C17.4696 43.2368 18.6538 44.4211 20.1012 44.4211C21.5485 44.4211 22.7327 43.2368 22.7327 41.7895C22.7327 40.3421 21.5485 39.1579 20.1012 39.1579ZM20.1012 18.1053C18.6538 18.1053 17.4696 19.2895 17.4696 20.7368C17.4696 22.1842 18.6538 23.3684 20.1012 23.3684C21.5485 23.3684 22.7327 22.1842 22.7327 20.7368C22.7327 19.2895 21.5485 18.1053 20.1012 18.1053ZM12.2064 19.4211C11.4827 19.4211 10.8906 20.0132 10.8906 20.7368C10.8906 21.4605 11.4827 22.0526 12.2064 22.0526C12.9301 22.0526 13.5222 21.4605 13.5222 20.7368C13.5222 20.0132 12.9301 19.4211 12.2064 19.4211ZM20.1012 7.57895C18.6538 7.57895 17.4696 8.76316 17.4696 10.2105C17.4696 11.6579 18.6538 12.8421 20.1012 12.8421C21.5485 12.8421 22.7327 11.6579 22.7327 10.2105C22.7327 8.76316 21.5485 7.57895 20.1012 7.57895ZM59.5748 22.0526C60.2985 22.0526 60.8906 21.4605 60.8906 20.7368C60.8906 20.0132 60.2985 19.4211 59.5748 19.4211C58.8512 19.4211 58.259 20.0132 58.259 20.7368C58.259 21.4605 58.8512 22.0526 59.5748 22.0526ZM41.1538 12.8421C42.6012 12.8421 43.7854 11.6579 43.7854 10.2105C43.7854 8.76316 42.6012 7.57895 41.1538 7.57895C39.7064 7.57895 38.5222 8.76316 38.5222 10.2105C38.5222 11.6579 39.7064 12.8421 41.1538 12.8421ZM41.1538 3.63158C41.8775 3.63158 42.4696 3.03947 42.4696 2.31579C42.4696 1.59211 41.8775 1 41.1538 1C40.4301 1 39.838 1.59211 39.838 2.31579C39.838 3.03947 40.4301 3.63158 41.1538 3.63158ZM12.2064 29.9474C11.4827 29.9474 10.8906 30.5395 10.8906 31.2632C10.8906 31.9868 11.4827 32.5789 12.2064 32.5789C12.9301 32.5789 13.5222 31.9868 13.5222 31.2632C13.5222 30.5395 12.9301 29.9474 12.2064 29.9474ZM30.6275 48.3684C29.9038 48.3684 29.3117 48.9605 29.3117 49.6842C29.3117 50.4079 29.9038 51 30.6275 51C31.3512 51 31.9433 50.4079 31.9433 49.6842C31.9433 48.9605 31.3512 48.3684 30.6275 48.3684ZM30.6275 3.63158C31.3512 3.63158 31.9433 3.03947 31.9433 2.31579C31.9433 1.59211 31.3512 1 30.6275 1C29.9038 1 29.3117 1.59211 29.3117 2.31579C29.3117 3.03947 29.9038 3.63158 30.6275 3.63158ZM30.6275 12.8421C32.0748 12.8421 33.259 11.6579 33.259 10.2105C33.259 8.76316 32.0748 7.57895 30.6275 7.57895C29.1801 7.57895 27.9959 8.76316 27.9959 10.2105C27.9959 11.6579 29.1801 12.8421 30.6275 12.8421ZM30.6275 27.3158C28.4433 27.3158 26.6801 29.0789 26.6801 31.2632C26.6801 33.4474 28.4433 35.2105 30.6275 35.2105C32.8117 35.2105 34.5748 33.4474 34.5748 31.2632C34.5748 29.0789 32.8117 27.3158 30.6275 27.3158ZM51.6801 28.6316C50.2327 28.6316 49.0485 29.8158 49.0485 31.2632C49.0485 32.7105 50.2327 33.8947 51.6801 33.8947C53.1275 33.8947 54.3117 32.7105 54.3117 31.2632C54.3117 29.8158 53.1275 28.6316 51.6801 28.6316ZM51.6801 39.1579C50.2327 39.1579 49.0485 40.3421 49.0485 41.7895C49.0485 43.2368 50.2327 44.4211 51.6801 44.4211C53.1275 44.4211 54.3117 43.2368 54.3117 41.7895C54.3117 40.3421 53.1275 39.1579 51.6801 39.1579ZM51.6801 18.1053C50.2327 18.1053 49.0485 19.2895 49.0485 20.7368C49.0485 22.1842 50.2327 23.3684 51.6801 23.3684C53.1275 23.3684 54.3117 22.1842 54.3117 20.7368C54.3117 19.2895 53.1275 18.1053 51.6801 18.1053ZM51.6801 7.57895C50.2327 7.57895 49.0485 8.76316 49.0485 10.2105C49.0485 11.6579 50.2327 12.8421 51.6801 12.8421C53.1275 12.8421 54.3117 11.6579 54.3117 10.2105C54.3117 8.76316 53.1275 7.57895 51.6801 7.57895ZM59.5748 29.9474C58.8512 29.9474 58.259 30.5395 58.259 31.2632C58.259 31.9868 58.8512 32.5789 59.5748 32.5789C60.2985 32.5789 60.8906 31.9868 60.8906 31.2632C60.8906 30.5395 60.2985 29.9474 59.5748 29.9474ZM41.1538 39.1579C39.7064 39.1579 38.5222 40.3421 38.5222 41.7895C38.5222 43.2368 39.7064 44.4211 41.1538 44.4211C42.6012 44.4211 43.7854 43.2368 43.7854 41.7895C43.7854 40.3421 42.6012 39.1579 41.1538 39.1579ZM41.1538 48.3684C40.4301 48.3684 39.838 48.9605 39.838 49.6842C39.838 50.4079 40.4301 51 41.1538 51C41.8775 51 42.4696 50.4079 42.4696 49.6842C42.4696 48.9605 41.8775 48.3684 41.1538 48.3684ZM30.6275 16.7895C28.4433 16.7895 26.6801 18.5526 26.6801 20.7368C26.6801 22.9211 28.4433 24.6842 30.6275 24.6842C32.8117 24.6842 34.5748 22.9211 34.5748 20.7368C34.5748 18.5526 32.8117 16.7895 30.6275 16.7895ZM30.6275 39.1579C29.1801 39.1579 27.9959 40.3421 27.9959 41.7895C27.9959 43.2368 29.1801 44.4211 30.6275 44.4211C32.0748 44.4211 33.259 43.2368 33.259 41.7895C33.259 40.3421 32.0748 39.1579 30.6275 39.1579ZM41.1538 27.3158C38.9696 27.3158 37.2064 29.0789 37.2064 31.2632C37.2064 33.4474 38.9696 35.2105 41.1538 35.2105C43.338 35.2105 45.1012 33.4474 45.1012 31.2632C45.1012 29.0789 43.338 27.3158 41.1538 27.3158ZM41.1538 16.7895C38.9696 16.7895 37.2064 18.5526 37.2064 20.7368C37.2064 22.9211 38.9696 24.6842 41.1538 24.6842C43.338 24.6842 45.1012 22.9211 45.1012 20.7368C45.1012 18.5526 43.338 16.7895 41.1538 16.7895Z" fill="#FF6B00"/>
<line x1="1.28317" y1="53.2056" x2="69.2832" y2="1.20564" stroke="#FF6B00" stroke-width="2" stroke-linejoin="round"/>
</svg>
