<svg width="70" height="55" viewBox="0 0 70 55" fill="none" xmlns="http://www.w3.org/2000/svg">
<line x1="1.28317" y1="54.2056" x2="69.2832" y2="2.20564" stroke="#FF6B00" stroke-width="2" stroke-linejoin="round"/>
<g clip-path="url(#clip0)">
<path d="M60.1156 19.8634L56.2026 22.1138L60.0786 24.1452C60.6036 24.4204 60.8063 25.0691 60.531 25.5941C60.2553 26.1194 59.6066 26.3221 59.0821 26.0464L53.998 23.3819L49.1443 26.1732C49.2697 26.5945 49.3381 27.0401 49.3381 27.5012C49.3381 27.9628 49.2697 28.408 49.1439 28.8293L53.9988 31.6202L59.0816 28.9535C59.2407 28.8696 59.411 28.8302 59.5793 28.8302C59.9654 28.8302 60.3388 29.0396 60.5306 29.4051C60.8058 29.93 60.6036 30.5791 60.0786 30.8544L56.2035 32.8879L60.1152 35.1366C60.6288 35.432 60.8058 36.0883 60.5104 36.6023C60.215 37.1159 59.5587 37.293 59.0451 36.998L55.1226 34.743L55.2933 39.107C55.3164 39.6995 54.8548 40.1984 54.2623 40.2215C53.6703 40.2454 53.1713 39.7834 53.1478 39.1909L52.9246 33.4791L48.0713 30.6891C47.4566 31.3428 46.6555 31.8191 45.7538 32.0327V37.596L50.6075 40.6424C51.1093 40.9575 51.2608 41.6201 50.9457 42.122C50.6306 42.6242 49.968 42.7757 49.4661 42.4606L45.7538 40.1305V44.6329C45.7538 45.2259 45.2733 45.7063 44.6804 45.7063C44.0875 45.7063 43.607 45.2259 43.607 44.6329V40.13L39.8913 42.4606C39.3894 42.7757 38.7269 42.6242 38.4117 42.122C38.097 41.6197 38.2485 40.9571 38.7508 40.6424L43.607 37.596V32.0327C42.7048 31.8195 41.9034 31.3437 41.2882 30.6899L37.0631 33.1195V44.6329C37.0631 45.2259 36.5826 45.7063 35.9897 45.7063C27.9188 45.7063 20.8877 40.0805 18.8916 32.026C18.7489 31.4503 19.0997 30.8683 19.675 30.7256C20.2503 30.5829 20.8327 30.9341 20.975 31.5094C22.6442 38.243 28.2914 43.0497 34.9163 43.5214V11.4782C28.2906 11.9498 22.6438 16.7578 20.975 23.4935C20.8327 24.0688 20.2503 24.4192 19.675 24.2773C19.0997 24.1347 18.7489 23.5527 18.8916 22.9774C20.8873 14.9207 27.9184 9.29366 35.9897 9.29366C36.5826 9.29366 37.0631 9.77412 37.0631 10.367V21.8838L41.2865 24.3122C41.9021 23.6576 42.704 23.1809 43.607 22.9669V17.4065L38.7504 14.3576C38.2481 14.042 38.0966 13.3795 38.4121 12.8776C38.7273 12.3757 39.3899 12.2243 39.8917 12.5394L43.607 14.872V10.3666C43.607 9.77412 44.0875 9.29324 44.6804 9.29324C45.2733 9.29324 45.7538 9.77412 45.7538 10.3666V14.8716L49.4657 12.5394C49.6432 12.4282 49.8404 12.3749 50.0355 12.3749C50.3926 12.3749 50.7418 12.5528 50.9457 12.8776C51.2608 13.3795 51.1098 14.042 50.6075 14.3576L45.7538 17.4065V22.9673C46.6559 23.1813 47.4574 23.658 48.0726 24.313L52.9246 21.5221L53.1478 15.8124C53.1705 15.2342 53.6463 14.781 54.22 14.781C54.2342 14.781 54.2485 14.781 54.2623 14.7818C54.8548 14.8049 55.3164 15.3038 55.2933 15.8963L55.1226 20.2582L59.0447 18.0024C59.2134 17.9055 59.3972 17.8593 59.5789 17.8593C59.9507 17.8593 60.312 18.0523 60.5104 18.3977C60.8063 18.9117 60.6292 19.5676 60.1156 19.8634ZM37.0635 24.36V30.6429L40.2148 28.831C40.0889 28.4093 40.0201 27.9632 40.0201 27.5017C40.0201 27.0393 40.0885 26.5936 40.2144 26.1719L37.0635 24.36ZM44.6808 24.9877C43.2948 24.9877 42.1669 26.1153 42.1669 27.5017C42.1669 28.886 43.2948 30.0122 44.6808 30.0122C46.0651 30.0122 47.1914 28.886 47.1914 27.5017C47.1914 26.1153 46.0651 24.9877 44.6808 24.9877Z" fill="#FF6B00"/>
<path d="M19.4157 26.4266C20.0065 26.4266 20.4878 26.9075 20.4878 27.5017C20.4878 28.0925 20.0065 28.5734 19.4157 28.5734C18.822 28.5734 18.3411 28.0925 18.3411 27.5017C18.3411 26.9079 18.822 26.4266 19.4157 26.4266Z" fill="#FF6B00"/>
<path d="M12.3884 44.9477L17.2119 41.1019C17.4096 40.9441 17.6458 40.8677 17.8804 40.8677C18.1959 40.8677 18.5085 41.0062 18.7204 41.2718C19.0901 41.7355 19.0138 42.4111 18.5505 42.7803L13.727 46.6261C13.2637 46.9958 12.5882 46.9199 12.2185 46.4562C11.8492 45.9925 11.9252 45.3173 12.3884 44.9477Z" fill="#FF6B00"/>
<path d="M24.9681 47.9097C25.1531 47.5258 25.5366 47.3017 25.9361 47.3017C26.0922 47.3017 26.2508 47.3361 26.4011 47.4083C26.9352 47.6655 27.1597 48.3071 26.9025 48.8413L24.2287 54.3924C23.9715 54.9261 23.3303 55.1506 22.7961 54.8934C22.262 54.6362 22.0375 53.9946 22.2947 53.4608L24.9681 47.9097Z" fill="#FF6B00"/>
<path d="M17.2119 13.8981L12.3884 10.0523C11.9252 9.68264 11.8492 9.00747 12.2185 8.5438C12.4304 8.27776 12.743 8.13971 13.0585 8.13971C13.2931 8.13971 13.5294 8.21608 13.727 8.37385L18.5505 12.2196C19.0138 12.5889 19.0901 13.2645 18.7204 13.7282C18.3508 14.1914 17.6756 14.2678 17.2119 13.8981Z" fill="#FF6B00"/>
<path d="M26.4011 7.59463C25.8665 7.85227 25.2253 7.62736 24.9681 7.09319L22.2947 1.53915C22.0375 1.00498 22.262 0.363811 22.7961 0.106586C22.9464 0.0339928 23.105 3.8147e-06 23.2611 3.8147e-06C23.6605 3.8147e-06 24.0441 0.224079 24.2291 0.608027L26.9025 6.16206C27.1597 6.69623 26.9352 7.33782 26.4011 7.59463Z" fill="#FF6B00"/>
<path d="M7.15533 32.9806L13.163 31.6101C13.2436 31.5917 13.3237 31.5833 13.403 31.5833C13.8927 31.5833 14.335 31.9202 14.4483 32.4179C14.58 32.9961 14.2183 33.5714 13.6405 33.7032L7.63244 35.0737C7.05421 35.2046 6.47933 34.8437 6.34757 34.2655C6.21581 33.6877 6.5771 33.1124 7.15533 32.9806Z" fill="#FF6B00"/>
<path d="M14.4483 22.5854C14.3162 23.1633 13.7404 23.525 13.1626 23.3928L7.15456 22.0194C6.57674 21.8876 6.21545 21.3119 6.34763 20.7337C6.46135 20.2364 6.90363 19.8995 7.3929 19.8995C7.47221 19.8995 7.55277 19.9083 7.63292 19.9263L13.641 21.2997C14.2188 21.4319 14.5805 22.0076 14.4483 22.5854Z" fill="#FF6B00"/>
</g>
<defs>
<clipPath id="clip0">
<rect width="55" height="55" fill="white" transform="matrix(1 0 0 -1 5.89062 55)"/>
</clipPath>
</defs>
</svg>
