<svg width="72" height="71" viewBox="0 0 72 71" fill="none" xmlns="http://www.w3.org/2000/svg">
<g clip-path="url(#clip0)">
<path d="M36.3906 18.8963C27.2352 18.8963 19.7869 26.3446 19.7869 35.5C19.7869 44.6554 27.2352 52.1037 36.3906 52.1037C45.546 52.1037 52.9943 44.6554 52.9943 35.5C52.9943 26.3446 45.546 18.8963 36.3906 18.8963ZM36.3906 50.0196C28.3844 50.0196 21.871 43.5062 21.871 35.5C21.871 27.4938 28.3844 20.9804 36.3906 20.9804C44.3968 20.9804 50.9102 27.4938 50.9102 35.5C50.9102 43.5062 44.3968 50.0196 36.3906 50.0196Z" fill="#FF6B00"/>
<path d="M36.3906 9.86497C36.9661 9.86497 37.4327 9.3984 37.4327 8.8229V1.04207C37.4327 0.466571 36.9661 0 36.3906 0C35.8151 0 35.3485 0.466571 35.3485 1.04207V8.8229C35.3485 9.3984 35.8151 9.86497 36.3906 9.86497Z" fill="#FF6B00"/>
<path d="M36.3906 16.5342C36.9661 16.5342 37.4327 16.0677 37.4327 15.4922V13.2691C37.4327 12.6936 36.9661 12.227 36.3906 12.227C35.8151 12.227 35.3485 12.6936 35.3485 13.2691V15.4922C35.3485 16.0677 35.8151 16.5342 36.3906 16.5342Z" fill="#FF6B00"/>
<path d="M36.3906 61.135C35.8151 61.135 35.3485 61.6016 35.3485 62.1771V69.9579C35.3485 70.5334 35.8151 71 36.3906 71C36.9661 71 37.4327 70.5334 37.4327 69.9579V62.1771C37.4327 61.6016 36.9661 61.135 36.3906 61.135Z" fill="#FF6B00"/>
<path d="M36.3906 54.4658C35.8151 54.4658 35.3485 54.9323 35.3485 55.5078V57.7309C35.3485 58.3064 35.8151 58.773 36.3906 58.773C36.9661 58.773 37.4327 58.3064 37.4327 57.7309V55.5078C37.4327 54.9323 36.9661 54.4658 36.3906 54.4658Z" fill="#FF6B00"/>
<path d="M70.8485 34.4579H63.0677C62.4922 34.4579 62.0256 34.9245 62.0256 35.5C62.0256 36.0755 62.4922 36.5421 63.0677 36.5421H70.8485C71.424 36.5421 71.8906 36.0755 71.8906 35.5C71.8906 34.9245 71.424 34.4579 70.8485 34.4579Z" fill="#FF6B00"/>
<path d="M56.3985 34.4579C55.823 34.4579 55.3564 34.9245 55.3564 35.5C55.3564 36.0755 55.823 36.5421 56.3985 36.5421H58.6216C59.1971 36.5421 59.6636 36.0755 59.6636 35.5C59.6636 34.9245 59.1971 34.4579 58.6216 34.4579H56.3985Z" fill="#FF6B00"/>
<path d="M10.7556 35.5C10.7556 34.9245 10.289 34.4579 9.71352 34.4579H1.9327C1.3572 34.4579 0.890625 34.9245 0.890625 35.5C0.890625 36.0755 1.3572 36.5421 1.9327 36.5421H9.71352C10.289 36.5421 10.7556 36.0755 10.7556 35.5Z" fill="#FF6B00"/>
<path d="M14.1597 34.4579C13.5842 34.4579 13.1176 34.9245 13.1176 35.5C13.1176 36.0755 13.5842 36.5421 14.1597 36.5421H16.3828C16.9583 36.5421 17.4249 36.0755 17.4249 35.5C17.4249 34.9245 16.9583 34.4579 16.3828 34.4579H14.1597Z" fill="#FF6B00"/>
<path d="M21.5062 48.9108L12.3113 58.1056C11.9044 58.5126 11.9044 59.1725 12.3113 59.5793C12.5147 59.7828 12.7815 59.8845 13.0481 59.8845C13.3148 59.8845 13.5815 59.7828 13.785 59.5793L22.9798 50.3844C23.3868 49.9775 23.3868 49.3176 22.9798 48.9108C22.5728 48.5038 21.913 48.5038 21.5062 48.9108Z" fill="#FF6B00"/>
<path d="M50.5383 22.3945C50.8049 22.3945 51.0717 22.2927 51.2751 22.0892L60.4699 12.8943C60.8769 12.4874 60.8769 11.8275 60.4699 11.4207C60.063 11.0138 59.4031 11.0138 58.9963 11.4207L49.8014 20.6156C49.3945 21.0225 49.3945 21.6824 49.8014 22.0892C50.0049 22.2926 50.2716 22.3945 50.5383 22.3945Z" fill="#FF6B00"/>
<path d="M27.7711 17.414C27.9373 17.8153 28.3254 18.0576 28.7343 18.0576C28.8673 18.0576 29.0023 18.0321 29.1326 17.978C29.6644 17.7578 29.9168 17.1481 29.6966 16.6165L26.2936 8.40107C26.0734 7.86933 25.4637 7.61687 24.9321 7.8371C24.4004 8.05732 24.1479 8.66701 24.3681 9.1986L27.7711 17.414Z" fill="#FF6B00"/>
<path d="M45.0101 53.586C44.7899 53.0542 44.1803 52.8019 43.6486 53.022C43.1169 53.2422 42.8644 53.8519 43.0846 54.3835L46.4876 62.5989C46.6538 63.0002 47.0419 63.2425 47.4508 63.2425C47.5837 63.2425 47.7188 63.2169 47.8491 63.1629C48.3809 62.9427 48.6333 62.333 48.4131 61.8014L45.0101 53.586Z" fill="#FF6B00"/>
<path d="M51.2751 48.9108C50.8681 48.5038 50.2083 48.5038 49.8014 48.9108C49.3945 49.3178 49.3945 49.9776 49.8014 50.3844L58.9963 59.5793C59.1997 59.7827 59.4665 59.8845 59.7331 59.8845C59.9997 59.8845 60.2665 59.7828 60.4699 59.5793C60.8769 59.1723 60.8769 58.5125 60.4699 58.1056L51.2751 48.9108Z" fill="#FF6B00"/>
<path d="M21.5062 22.0892C21.7096 22.2926 21.9764 22.3945 22.243 22.3945C22.5096 22.3945 22.7764 22.2927 22.9798 22.0892C23.3868 21.6822 23.3868 21.0224 22.9798 20.6156L13.785 11.4207C13.378 11.0138 12.7182 11.0138 12.3113 11.4207C11.9044 11.8277 11.9044 12.4875 12.3113 12.8943L21.5062 22.0892Z" fill="#FF6B00"/>
<path d="M43.6485 17.978C43.779 18.0321 43.914 18.0576 44.0468 18.0576C44.4557 18.0576 44.8438 17.8153 45.01 17.414L48.413 9.19861C48.6332 8.66687 48.3807 8.05733 47.849 7.8371C47.3173 7.61702 46.7077 7.86934 46.4875 8.40107L43.0845 16.6165C42.8643 17.1481 43.1169 17.7577 43.6485 17.978Z" fill="#FF6B00"/>
<path d="M29.1328 53.022C28.6008 52.8019 27.9914 53.0542 27.7713 53.586L24.3683 61.8014C24.1481 62.3331 24.4005 62.9427 24.9323 63.1629C25.0627 63.2169 25.1978 63.2425 25.3306 63.2425C25.7395 63.2425 26.1276 63.0002 26.2938 62.5989L29.6968 54.3835C29.917 53.8519 29.6644 53.2424 29.1328 53.022Z" fill="#FF6B00"/>
<path d="M18.8686 42.7578C18.6484 42.2261 18.0389 41.9738 17.5071 42.1939L9.29169 45.5969C8.75996 45.8171 8.5075 46.4268 8.72772 46.9584C8.8939 47.3596 9.28197 47.6019 9.69088 47.6019C9.82385 47.6019 9.9589 47.5764 10.0892 47.5223L18.3047 44.1193C18.8363 43.8991 19.0889 43.2896 18.8686 42.7578Z" fill="#FF6B00"/>
<path d="M53.9126 28.2422C54.0788 28.6434 54.4669 28.8858 54.8758 28.8858C55.0087 28.8858 55.1438 28.8602 55.2741 28.8061L63.4895 25.4031C64.0213 25.1829 64.2737 24.5732 64.0535 24.0416C63.8333 23.5099 63.2236 23.2576 62.692 23.4777L54.4766 26.8807C53.945 27.1009 53.6924 27.7104 53.9126 28.2422Z" fill="#FF6B00"/>
<path d="M9.29154 25.4031L17.507 28.8061C17.6373 28.8602 17.7725 28.8858 17.9053 28.8858C18.3142 28.8858 18.7023 28.6434 18.8685 28.2422C19.0887 27.7104 18.8362 27.1009 18.3045 26.8807L10.0891 23.4777C9.55706 23.2576 8.9478 23.5099 8.72757 24.0416C8.50735 24.5732 8.75981 25.1829 9.29154 25.4031Z" fill="#FF6B00"/>
<path d="M63.4897 45.5969L55.2743 42.1939C54.7426 41.9738 54.133 42.2261 53.9128 42.7578C53.6926 43.2896 53.945 43.8991 54.4768 44.1193L62.6922 47.5223C62.8227 47.5764 62.9577 47.6019 63.0905 47.6019C63.4994 47.6019 63.8875 47.3596 64.0537 46.9584C64.2739 46.4268 64.0215 45.8171 63.4897 45.5969Z" fill="#FF6B00"/>
</g>
<defs>
<clipPath id="clip0">
<rect width="71" height="71" fill="white" transform="translate(0.890625)"/>
</clipPath>
</defs>
</svg>
