<svg width="52" height="51" viewBox="0 0 52 51" fill="none" xmlns="http://www.w3.org/2000/svg">
<g clip-path="url(#clip0)">
<path d="M24.1732 11.087C23.5612 11.087 23.0645 11.5837 23.0645 12.1957V14.8366L20.2352 13.4219C19.6875 13.1491 19.0223 13.3709 18.7473 13.9186C18.4723 14.4663 18.6962 15.1315 19.244 15.4065L23.0668 17.3179V24.3913H18.2085L16.2972 20.5685C16.0223 20.0208 15.357 19.8013 14.8093 20.0718C14.2616 20.3467 14.0398 21.0119 14.3125 21.5597L15.7273 24.389H13.0864C12.4744 24.389 11.9776 24.8858 11.9776 25.4978C11.9776 26.1098 12.4744 26.6065 13.0864 26.6065H15.7273L14.3125 29.4359C14.0376 29.9835 14.2615 30.6487 14.8093 30.9238C14.9689 31.0036 15.1374 31.0413 15.3037 31.0413C15.7117 31.0413 16.102 30.8173 16.2971 30.4293L18.2084 26.6065H23.0645V33.6822L19.2417 35.5936C18.694 35.8685 18.4722 36.5337 18.745 37.0815C18.9401 37.4695 19.3304 37.6935 19.7383 37.6935C19.9046 37.6935 20.0731 37.6558 20.2328 37.5759L23.0621 36.1612V38.8021C23.0621 39.4141 23.5589 39.9108 24.1708 39.9108C24.7828 39.9108 25.2796 39.4141 25.2796 38.8021V12.1934C25.282 11.5836 24.7852 11.087 24.1732 11.087Z" fill="#FF6B00"/>
<path d="M28.6081 19.9565C31.0627 19.9565 32.2646 19.1538 33.2313 18.5085C33.9231 18.045 34.3799 17.739 35.2602 17.739C37.043 17.739 37.8235 18.2601 38.6506 18.8145C39.4511 19.3489 40.3602 19.9565 41.9124 19.9565C42.5244 19.9565 43.0211 19.4598 43.0211 18.8478C43.0211 18.2358 42.5244 17.739 41.9124 17.739C41.0321 17.739 40.5753 17.4331 39.8835 16.9696C38.9167 16.3243 37.7149 15.5216 35.2602 15.5216C33.7081 15.5216 32.7989 16.1291 31.9985 16.6636C31.1714 17.2179 30.3908 17.739 28.6081 17.739C27.9961 17.739 27.4993 18.2358 27.4993 18.8478C27.4993 19.4598 27.9961 19.9565 28.6081 19.9565Z" fill="#FF6B00"/>
<path d="M41.9124 31.0435C41.0321 31.0435 40.5753 30.7375 39.8835 30.274C38.9167 29.6288 37.7149 28.826 35.2602 28.826C33.7081 28.826 32.7989 29.4336 31.9985 29.968C31.1714 30.5223 30.3908 31.0435 28.6081 31.0435C27.9961 31.0435 27.4993 31.5402 27.4993 32.1522C27.4993 32.7642 27.9961 33.2608 28.6081 33.2608C31.0627 33.2608 32.2646 32.4581 33.2313 31.8129C33.9231 31.3494 34.3799 31.0434 35.2602 31.0434C37.043 31.0434 37.8235 31.5644 38.6506 32.1189C39.4511 32.6532 40.3602 33.2608 41.9124 33.2608C42.5244 33.2608 43.0211 32.7641 43.0211 32.1521C43.0211 31.5401 42.5244 31.0435 41.9124 31.0435Z" fill="#FF6B00"/>
<path d="M41.9124 24.3913C41.0321 24.3913 40.5753 24.0853 39.8835 23.6219C38.9167 22.9766 37.7149 22.1739 35.2602 22.1739C33.7081 22.1739 32.7989 22.7814 31.9985 23.3159C31.1714 23.8702 30.3908 24.3913 28.6081 24.3913C27.9961 24.3913 27.4993 24.8881 27.4993 25.5001C27.4993 26.1121 27.9961 26.6087 28.6081 26.6087C31.0627 26.6087 32.2646 25.806 33.2313 25.1607C33.9231 24.6972 34.3799 24.3912 35.2602 24.3912C37.043 24.3912 37.8235 24.9123 38.6506 25.4667C39.4511 26.0011 40.3602 26.6087 41.9124 26.6087C42.5244 26.6087 43.0211 26.112 43.0211 25.5C43.0211 24.888 42.5244 24.3913 41.9124 24.3913Z" fill="#FF6B00"/>
<path d="M26.3906 0C12.3302 0 0.890625 11.4395 0.890625 25.4999C0.890625 39.5603 12.3302 50.9999 26.3906 50.9999C40.451 50.9999 51.8905 39.5603 51.8905 25.4999C51.8905 11.4395 40.4511 0 26.3906 0ZM26.3906 48.7825C13.5519 48.7825 3.10798 38.3386 3.10798 25.4999C3.10798 12.6613 13.5519 2.21736 26.3906 2.21736C39.2293 2.21736 49.6732 12.6613 49.6732 25.4999C49.6732 38.3386 39.2293 48.7825 26.3906 48.7825Z" fill="#FF6B00"/>
</g>
<defs>
<clipPath id="clip0">
<rect width="51" height="51" fill="white" transform="translate(0.890625)"/>
</clipPath>
</defs>
</svg>
