<svg width="152" height="24" viewBox="0 0 152 24" fill="none" xmlns="http://www.w3.org/2000/svg">
<path d="M48.1398 9.29596V7.91263L38.4012 12.9479L26.3939 3.81798L25.4532 3.15399L21.4692 9.01929L0 0L1.10666 1.77066L13.3906 23.1846L14.1653 22.0779L17.0426 17.8173L21.9672 22.7972L22.6312 22.4652L35.0812 16.0466L47.8631 21.4139L48.1398 21.5246V21.1926V9.29596ZM46.9225 9.90462V19.3666L39.5078 13.7779L46.9225 9.90462ZM37.2392 13.5566L35.0258 14.7186L24.9552 10.5133L26.0066 5.03531L37.2392 13.5566ZM24.4019 6.80597L23.7932 10.0153L22.6312 9.51729L24.4019 6.80597ZM20.8052 10.0706L16.8766 15.9359L4.09465 3.04332L20.8052 10.0706ZM13.5013 20.9159L4.37131 5.03531L16.1573 16.9319L13.5013 20.9159ZM21.9119 10.5133L23.5719 11.1773L21.6906 20.8052L17.7066 16.8213L21.9119 10.5133ZM22.9079 20.9712L24.6786 11.7306L33.5872 15.4379L22.9079 20.9712ZM38.2905 14.3866L43.3258 18.2046L36.4645 15.3273L38.2905 14.3866Z" fill="#FF6B00"/>
<path d="M65.9017 8.24393L65.7357 9.95926C64.4077 9.90393 62.7477 9.90393 61.2537 9.90393C59.0957 9.90393 58.2657 10.0146 58.2657 11.3979C58.2657 12.5599 58.8191 12.8366 60.2024 13.1686L63.301 13.9432C65.7357 14.6072 66.455 15.8246 66.455 17.7612C66.455 20.7492 64.9057 21.4685 61.143 21.4685C60.0917 21.4685 58.3764 21.4132 56.2184 21.0259L56.3844 19.2552C59.0404 19.3106 59.9811 19.3106 61.1984 19.3106C63.5224 19.3106 64.1864 19.0892 64.1864 17.7059C64.1864 16.4886 63.633 16.2672 62.305 15.9906L59.0957 15.1606C56.8271 14.5519 55.9971 13.3346 55.9971 11.3426C55.9971 8.29927 57.6017 7.80127 61.143 7.80127C62.637 7.80127 64.297 7.91194 65.9017 8.24393Z" fill="#FF6B00"/>
<path d="M81.893 14.6633C81.893 19.8646 80.2883 21.4693 75.6403 21.4693C71.0477 21.4693 69.3877 19.8646 69.3877 14.6633C69.3877 9.46199 71.0477 7.85733 75.6403 7.85733C80.2883 7.802 81.893 9.40666 81.893 14.6633ZM71.767 14.6633C71.767 18.3153 72.7077 19.4773 75.6403 19.4773C78.573 19.4773 79.5136 18.3706 79.5136 14.6633C79.5136 11.0113 78.573 9.84932 75.6403 9.84932C72.763 9.84932 71.767 10.956 71.767 14.6633Z" fill="#FF6B00"/>
<path d="M86.6517 18.0938C86.6517 18.9238 87.0943 19.2005 88.0903 19.2005H93.679L93.7896 21.0818C91.7977 21.2478 89.695 21.2478 87.6477 21.2478C85.3237 21.2478 84.4384 20.0858 84.4384 18.4811V7.85718H86.6517V18.0938Z" fill="#FF6B00"/>
<path d="M99.9315 17.4298L98.5482 21.1925H96.2795L101.204 8.52117C101.315 8.13384 101.647 7.85718 102.034 7.85718H104.358C104.746 7.85718 105.078 8.07851 105.188 8.52117L110.113 21.1925H107.789L106.35 17.4298H99.9315ZM103.805 10.8452C103.75 10.6238 103.694 10.5685 103.639 10.3472C103.473 9.9045 102.754 9.9045 102.643 10.3472C102.532 10.5685 102.477 10.8452 102.477 10.8452L100.762 15.4378H105.576L103.805 10.8452Z" fill="#FF6B00"/>
<path d="M146.799 21.1925H144.585V16.7105L139.439 7.74658H141.929L143.866 11.1772C144.143 11.6752 143.811 11.0666 144.087 11.6199C144.53 12.3392 146.965 12.2839 147.352 11.6199C147.684 11.0112 147.463 11.4539 147.739 10.9559L149.51 7.74658H152L146.854 16.7659V21.1925H146.799Z" fill="#FF6B00"/>
<path d="M122.286 17.0978C121.954 15.8251 121.069 15.3271 120.294 15.1611V15.0505C122.341 14.8291 123.171 13.7225 123.171 11.7305C123.171 8.74251 121.733 7.85718 118.025 7.85718C115.923 7.85718 114.761 7.85718 113.433 7.96784H113.377C112.935 8.02318 112.547 8.41051 112.547 8.90851V21.1925H114.761V15.8805H118.025C119.021 15.8805 119.63 16.2125 120.017 17.0425L121.345 21.1371H123.725L122.286 17.0978ZM117.97 13.9992H114.761V10.2918V9.84917H115.203H117.97C120.183 9.84917 120.903 10.2918 120.903 11.8965C120.903 13.5012 120.183 13.9992 117.97 13.9992Z" fill="#FF6B00"/>
<path d="M135.29 20.9159C134.294 21.1925 132.8 21.3585 130.697 21.3585C127.211 21.3585 125.772 19.2559 125.772 14.4972C125.772 9.24058 127.488 7.74658 132.302 7.74658C133.906 7.74658 135.345 7.85725 136.728 8.18925L136.562 9.73857C136.562 9.84924 136.451 9.90457 136.341 9.90457C136.341 9.90457 133.685 9.79391 132.468 9.79391C129.258 9.79391 128.152 10.2919 128.152 14.6079C128.152 18.1492 128.982 19.2559 131.361 19.2559C132.855 19.2559 133.962 19.2559 134.958 18.7579V14.1652C134.958 14.0546 135.068 13.9992 135.124 13.9992H136.894C137.005 13.9992 137.06 14.1099 137.116 14.1652V19.9199C137.116 20.0305 137.06 20.1412 136.95 20.1965C136.95 20.1965 136.12 20.6392 135.29 20.9159Z" fill="#FF6B00"/>
</svg>
