<svg width="20" height="20" viewBox="0 0 20 20" fill="none" xmlns="http://www.w3.org/2000/svg">
<path d="M16.6665 1.66675H6.6665C5.74567 1.66675 4.99984 2.41258 4.99984 3.33341V13.3334C4.99984 14.2542 5.74567 15.0001 6.6665 15.0001H16.6665C17.5873 15.0001 18.3332 14.2542 18.3332 13.3334V3.33341C18.3332 2.41258 17.5873 1.66675 16.6665 1.66675ZM9.58317 7.91675C9.58317 8.60842 9.02484 9.16675 8.33317 9.16675H7.49984V10.8334H6.24984V5.83342H8.33317C9.02484 5.83342 9.58317 6.39175 9.58317 7.08342V7.91675ZM13.7498 9.58342C13.7498 10.2751 13.1915 10.8334 12.4998 10.8334H10.4165V5.83342H12.4998C13.1915 5.83342 13.7498 6.39175 13.7498 7.08342V9.58342ZM17.0832 7.08342H15.8332V7.91675H17.0832V9.16675H15.8332V10.8334H14.5832V5.83342H17.0832V7.08342ZM7.49984 7.91675H8.33317V7.08342H7.49984V7.91675ZM3.33317 5.00008H1.6665V16.6667C1.6665 17.5876 2.41234 18.3334 3.33317 18.3334H14.9998V16.6667H3.33317V5.00008ZM11.6665 9.58342H12.4998V7.08342H11.6665V9.58342Z" fill="#33323B"/>
</svg>
