<svg width="15" height="14" viewBox="0 0 15 14" fill="none" xmlns="http://www.w3.org/2000/svg">
<path d="M9.05731 0.699951H6.72399C6.5952 0.699951 6.49066 0.804486 6.49066 0.933275C6.49066 1.06206 6.5952 1.1666 6.72399 1.1666H9.05731C9.1861 1.1666 9.29064 1.06206 9.29064 0.933275C9.29064 0.804486 9.1861 0.699951 9.05731 0.699951Z" fill="black"/>
<path d="M10.6906 0.699951H10.4573C10.3285 0.699951 10.224 0.804486 10.224 0.933275C10.224 1.06206 10.3285 1.1666 10.4573 1.1666H10.6906C10.8194 1.1666 10.9239 1.06206 10.9239 0.933275C10.9239 0.804486 10.8194 0.699951 10.6906 0.699951Z" fill="black"/>
<path d="M8.18042 11.9001H7.60106C7.24617 11.9001 6.95731 12.189 6.95731 12.5439V12.6566C6.95731 13.0115 7.24617 13.3001 7.60084 13.3001H8.1802C8.5351 13.3001 8.82396 13.0115 8.82396 12.6566V12.5439C8.82396 12.189 8.5351 11.9001 8.18042 11.9001ZM8.35731 12.6566C8.35731 12.7541 8.27798 12.8335 8.18045 12.8335H7.60106C7.50331 12.8335 7.42395 12.7541 7.42395 12.6566V12.5439C7.42395 12.4461 7.50328 12.3668 7.60106 12.3668H8.1802C8.27798 12.3668 8.35731 12.4461 8.35731 12.5439V12.6566Z" fill="black"/>
<path d="M11.014 0H4.76745C4.30241 0 3.92395 0.378465 3.92395 0.8435V13.1565C3.92395 13.6215 4.30241 14 4.76745 14H11.0138C11.4788 14 11.8573 13.6215 11.8573 13.1567V0.8435C11.8573 0.378465 11.4788 0 11.014 0ZM11.3906 13.1565C11.3906 13.3642 11.2217 13.5333 11.014 13.5333H4.76745C4.55956 13.5333 4.39063 13.3641 4.39063 13.1567V0.8435C4.39063 0.635824 4.55956 0.466676 4.76745 0.466676H11.0138C11.2217 0.466676 11.3906 0.635852 11.3906 0.8435V13.1565H11.3906Z" fill="black"/>
<path d="M11.624 1.40015H4.15731C4.02852 1.40015 3.92398 1.50468 3.92398 1.63347V11.4335C3.92398 11.5623 4.02852 11.6668 4.15731 11.6668H11.624C11.7528 11.6668 11.8573 11.5623 11.8573 11.4335V1.63347C11.8573 1.50468 11.7528 1.40015 11.624 1.40015ZM11.3906 11.2001H4.39063V1.86682H11.3906V11.2001Z" fill="#33323B"/>
</svg>
