<svg width="49" height="51" viewBox="0 0 49 51" fill="#FF6B00" xmlns="http://www.w3.org/2000/svg">
<g filter="url(#filter0_d)">
<mask id="path-1-inside-1" fill="white">
<path d="M37.7597 35.5324C35.2932 37.6957 32.2824 39.1438 29.0526 39.7201C25.8229 40.2964 22.497 39.9791 19.4345 38.8024C16.372 37.6256 13.6894 35.6343 11.6765 33.0435C9.66368 30.4528 8.39717 27.3612 8.01388 24.1029C7.6306 20.8446 8.14512 17.5435 9.50184 14.5564C10.8586 11.5693 13.0059 9.00976 15.7117 7.15449C18.4175 5.29922 21.5789 4.21875 24.8543 4.02986C28.1296 3.84097 31.3943 4.55085 34.2955 6.08276L32.5802 9.33116C30.2711 8.11188 27.6727 7.54688 25.0658 7.69722C22.4589 7.84756 19.9426 8.70753 17.789 10.1842C15.6354 11.6608 13.9263 13.698 12.8465 16.0755C11.7666 18.453 11.3571 21.0804 11.6622 23.6737C11.9672 26.2671 12.9753 28.7278 14.5774 30.7898C16.1794 32.8518 18.3146 34.4367 20.7521 35.3733C23.1896 36.3099 25.8367 36.5625 28.4073 36.1038C30.978 35.6451 33.3743 34.4925 35.3375 32.7707L37.7597 35.5324Z"/>
</mask>
<path d="M37.7597 35.5324C35.2932 37.6957 32.2824 39.1438 29.0526 39.7201C25.8229 40.2964 22.497 39.9791 19.4345 38.8024C16.372 37.6256 13.6894 35.6343 11.6765 33.0435C9.66368 30.4528 8.39717 27.3612 8.01388 24.1029C7.6306 20.8446 8.14512 17.5435 9.50184 14.5564C10.8586 11.5693 13.0059 9.00976 15.7117 7.15449C18.4175 5.29922 21.5789 4.21875 24.8543 4.02986C28.1296 3.84097 31.3943 4.55085 34.2955 6.08276L32.5802 9.33116C30.2711 8.11188 27.6727 7.54688 25.0658 7.69722C22.4589 7.84756 19.9426 8.70753 17.789 10.1842C15.6354 11.6608 13.9263 13.698 12.8465 16.0755C11.7666 18.453 11.3571 21.0804 11.6622 23.6737C11.9672 26.2671 12.9753 28.7278 14.5774 30.7898C16.1794 32.8518 18.3146 34.4367 20.7521 35.3733C23.1896 36.3099 25.8367 36.5625 28.4073 36.1038C30.978 35.6451 33.3743 34.4925 35.3375 32.7707L37.7597 35.5324Z" stroke="" stroke-width="" mask="url(#path-1-inside-1)"/>
</g>
<defs>
<filter id="filter0_d" x="0.200302" y="0.309692" width="48.1603" height="50.6112" filterUnits="userSpaceOnUse" color-interpolation-filters="sRGB">
<feFlood flood-opacity="0" result="BackgroundImageFix"/>
<feColorMatrix in="SourceAlpha" type="matrix" values="0 0 0 0 0 0 0 0 0 0 0 0 0 0 0 0 0 0 127 0"/>
<feOffset dy="4"/>
<feGaussianBlur stdDeviation="2"/>
<feColorMatrix type="matrix" values="0 0 0 0 0 0 0 0 0 0 0 0 0 0 0 0 0 0 0.25 0"/>
<feBlend mode="normal" in2="BackgroundImageFix" result="effect1_dropShadow"/>
<feBlend mode="normal" in="SourceGraphic" in2="effect1_dropShadow" result="shape"/>
</filter>
</defs>
</svg>
