<svg width="22" height="21" viewBox="0 0 22 21" fill="none" xmlns="http://www.w3.org/2000/svg">
<g clip-path="url(#clip0)">
<path d="M16.2059 0.0288086H6.57539C3.4418 0.0288086 0.890625 2.54276 0.890625 5.63064V15.1206C0.890625 18.2085 3.4418 20.7224 6.57539 20.7224H16.2059C19.3395 20.7224 21.8906 18.2085 21.8906 15.1206V5.63064C21.8906 2.54276 19.3395 0.0288086 16.2059 0.0288086ZM11.3906 16.034C8.22422 16.034 5.64844 13.4958 5.64844 10.3756C5.64844 7.25541 8.22422 4.71721 11.3906 4.71721C14.557 4.71721 17.1328 7.25541 17.1328 10.3756C17.1328 13.4958 14.557 16.034 11.3906 16.034ZM17.2682 6.05097C16.333 6.05097 15.5701 5.29921 15.5701 4.3777C15.5701 3.45619 16.333 2.70443 17.2682 2.70443C18.2033 2.70443 18.9662 3.45619 18.9662 4.3777C18.9662 5.29921 18.2074 6.05097 17.2682 6.05097Z" fill="white"/>
<path d="M11.3906 5.92969C8.90508 5.92969 6.87891 7.92226 6.87891 10.3756C6.87891 12.8249 8.90098 14.8215 11.3906 14.8215C13.8762 14.8215 15.9023 12.8289 15.9023 10.3756C15.9023 7.9263 13.8762 5.92969 11.3906 5.92969Z" fill="white"/>
<path d="M17.2682 3.92102C17.0098 3.92102 16.8006 4.12715 16.8006 4.38178C16.8006 4.6364 17.0098 4.84253 17.2682 4.84253C17.5266 4.84253 17.7358 4.6364 17.7358 4.38178C17.7358 4.12715 17.5266 3.92102 17.2682 3.92102Z" fill="white"/>
</g>
<defs>
<clipPath id="clip0">
<rect width="21" height="20.6936" fill="white" transform="translate(0.890625 0.0288086)"/>
</clipPath>
</defs>
</svg>
