<svg width="26" height="15" viewBox="0 0 26 15" fill="none" xmlns="http://www.w3.org/2000/svg">
<path d="M22.4478 9.34206C23.2792 10.1739 24.1599 10.9469 24.9006 11.8628C25.2299 12.2661 25.5427 12.6862 25.7814 13.1568C26.1188 13.829 25.8143 14.56 25.2299 14.602H21.5836C20.6453 14.6776 19.888 14.2911 19.2625 13.6357C18.7604 13.1064 18.2912 12.5518 17.8056 12.0056C17.6081 11.7872 17.3941 11.5771 17.1471 11.4091C16.6451 11.0814 16.2171 11.1822 15.929 11.7116C15.6409 12.2493 15.575 12.8459 15.5421 13.4509C15.501 14.3247 15.2458 14.56 14.3816 14.602C12.5378 14.6944 10.7847 14.4088 9.16318 13.4593C7.731 12.619 6.61983 11.4427 5.64859 10.0983C3.75548 7.48511 2.31508 4.61986 1.01459 1.67899C0.726513 1.0152 0.940516 0.662291 1.6566 0.645486C2.85008 0.620279 4.03533 0.620279 5.22881 0.645486C5.71443 0.653889 6.03544 0.939573 6.21652 1.40171C6.85853 3.01499 7.64869 4.56104 8.6364 5.98106C8.89979 6.35918 9.17141 6.73729 9.55003 7.00617C9.96981 7.30025 10.299 7.20783 10.4966 6.72048C10.62 6.41799 10.6777 6.0903 10.7106 5.7626C10.8011 4.63667 10.8176 3.51914 10.653 2.3932C10.5542 1.6958 10.1673 1.24206 9.48418 1.10762C9.13849 1.0404 9.18787 0.905963 9.35249 0.704303C9.6488 0.351399 9.92042 0.132935 10.4719 0.132935H14.5956C15.2458 0.267374 15.3857 0.561461 15.4763 1.22526V5.90544C15.468 6.16592 15.5997 6.93054 16.0607 7.09859C16.4228 7.21623 16.6698 6.92214 16.8838 6.68687C17.8715 5.61976 18.5793 4.35098 19.2049 3.04019C19.4847 2.46042 19.7234 1.86385 19.9539 1.26727C20.1267 0.821938 20.3983 0.603474 20.884 0.611876H24.8513C24.9665 0.611876 25.09 0.611876 25.2052 0.637084C25.8719 0.754718 26.0612 1.04881 25.8472 1.7126C25.518 2.76291 24.8924 3.62837 24.2669 4.51063C23.6084 5.4433 22.9005 6.35077 22.2421 7.29185C21.6577 8.16571 21.6988 8.59424 22.4478 9.34206Z" fill="white"/>
</svg>
